<?xml version="1.0" encoding="UTF-8" standalone="no"?>
<svg
   xmlns:dc="http://purl.org/dc/elements/1.1/"
   xmlns:cc="http://creativecommons.org/ns#"
   xmlns:rdf="http://www.w3.org/1999/02/22-rdf-syntax-ns#"
   xmlns:svg="http://www.w3.org/2000/svg"
   xmlns="http://www.w3.org/2000/svg"
   xmlns:sodipodi="http://sodipodi.sourceforge.net/DTD/sodipodi-0.dtd"
   xmlns:inkscape="http://www.inkscape.org/namespaces/inkscape"
   version="1.1"
   x="0px"
   y="0px"
   viewBox="0 0 1000 1000"
   enable-background="new 0 0 1000 1000"
   xml:space="preserve"
   id="svg10"
   sodipodi:docname="filezilla.svg"
   inkscape:version="1.0.1 (1.0.1+r74)"><defs
   id="defs14" /><sodipodi:namedview
   pagecolor="#ffffff"
   bordercolor="#666666"
   borderopacity="1"
   objecttolerance="10"
   gridtolerance="10"
   guidetolerance="10"
   inkscape:pageopacity="0"
   inkscape:pageshadow="2"
   inkscape:window-width="1920"
   inkscape:window-height="1029"
   id="namedview12"
   showgrid="false"
   inkscape:zoom="0.60599051"
   inkscape:cx="516.87508"
   inkscape:cy="567.42449"
   inkscape:window-x="0"
   inkscape:window-y="0"
   inkscape:window-maximized="1"
   inkscape:current-layer="svg10" />
<metadata
   id="metadata2"> Svg Vector Icons : http://www.onlinewebfonts.com/icon <rdf:RDF><cc:Work
     rdf:about=""><dc:format>image/svg+xml</dc:format><dc:type
       rdf:resource="http://purl.org/dc/dcmitype/StillImage" /></cc:Work></rdf:RDF></metadata>
<g
   id="g8"
   style="fill:#60be86;fill-opacity:1"><g
     transform="translate(0.000000,253.000000) scale(0.100000,-0.100000)"
     id="g6"
     style="fill:#60be86;fill-opacity:1"><path
       d="M100,1936.1l3.9-478.3l151.7-70c186.7-85.6,272.2-233.3,272.2-462.8c0-213.9-112.8-400.5-291.7-486.1L100,372.8V88.9c0-268.3,3.9-283.9,97.2-307.2C251.7-230,345-303.9,411.1-373.9C508.3-490.6,527.8-541.1,527.8-720c0-182.8-15.6-229.4-120.6-350c-66.1-73.9-163.3-147.8-213.9-159.4c-89.4-23.3-93.3-42.8-93.3-311.1c0-276.1,3.9-287.8,116.7-346.1c408.3-213.9,420-859.4,15.6-1108.3C100-3076.7,100-3080.6,100-3360.6v-280l136.1-66.1c178.9-85.6,291.7-272.2,291.7-486.1c0-217.8-89.4-365.6-280-474.5L100-4748.9v-264.5c0-260.5,0-260.5,136.1-326.6C625-5526.6,625-6164.4,240-6304.4L100-6355v-497.8v-497.8h505.6c435.6,0,505.6,7.8,505.6,62.2c0,198.4,361.7,431.7,598.9,381.1c167.2-35,353.9-182.8,412.2-322.8c46.7-120.5,50.5-120.5,330.6-120.5c264.4,0,283.9,7.8,307.2,89.4c66.1,260.6,353.9,416.1,637.8,342.2c159.4-42.8,334.4-202.2,377.2-342.2c23.3-81.7,46.7-89.4,303.3-89.4l280,3.9l93.3,147.8c120.6,198.3,280,287.8,528.9,291.7c245,0,486.1-136.1,567.8-322.8c54.5-120.5,58.3-120.5,353.9-120.5c241.1,0,303.3,11.7,303.3,58.3c0,31.1,54.5,116.7,120.5,194.5c229.5,256.7,583.3,256.7,808.9-3.9c66.1-73.9,120.5-159.5,120.5-190.6c0-46.7,62.2-58.3,287.8-58.3c268.3,0,287.8,7.8,311.1,89.4c58.3,245,381.1,408.3,653.3,334.5c159.4-42.8,330.6-198.4,365.5-334.5c23.3-85.6,38.9-89.4,525-89.4H9900v497.8v497.8l-136.1,50.6c-435.6,155.6-416.1,824.4,27.2,983.9c105,38.9,108.9,46.7,108.9,326.6c0,256.7-7.8,287.8-73.9,287.8c-42.8,0-136.1,58.3-210,128.3c-143.9,136.1-210,338.3-167.2,513.3c35,132.2,245,365.6,357.7,392.8c89.5,23.3,93.3,42.8,93.3,311.1c0,272.2-3.9,287.8-105,342.3c-248.9,128.3-396.7,431.7-346.1,700c31.1,159.4,225.5,400.6,361.7,455c81.7,31.1,89.4,54.4,89.4,315l-3.9,283.9l-155.6,70c-400.6,186.7-400.6,785.6,7.8,956.7l151.7,62.2v276.1v272.2l-159.4,70c-400.6,178.9-385,812.8,23.3,960.6l136.1,50.5v478.3v478.3h-497.8h-493.9l-77.8-143.9c-77.8-143.9-307.2-283.9-466.7-283.9s-388.9,140-466.7,283.9l-77.8,143.9h-272.2c-272.2,0-276.1,0-346.1-136.1c-97.2-178.9-361.7-311.1-552.2-276.1c-147.8,31.1-388.9,217.8-423.9,338.3c-23.3,66.1-62.2,73.9-322.8,73.9c-295.6,0-299.5-3.9-385-132.2c-85.6-132.2-361.7-295.6-501.7-295.6c-237.2,0-598.9,229.4-598.9,377.2c0,38.9-81.7,50.5-311.1,50.5c-291.7,0-315-7.8-346.1-89.4c-46.7-124.4-248.9-287.8-388.9-318.9c-248.9-54.4-536.7,105-606.7,334.4c-23.3,62.2-62.2,73.9-311.1,73.9c-283.9,0-283.9,0-361.7-132.2c-101.1-167.2-237.2-260.6-423.9-280c-190.6-23.3-427.8,108.9-513.3,283.9l-62.2,128.3H597.8H100V1936.1z M5124.5,855h1742.2l-3.9-143.9c0-81.7-31.1-357.8-66.1-614.4L6730.6-370l-1462.2-11.7l-1462.2-7.8l-93.3-556.1l-93.3-552.2l2267.2-11.7c1765.6-7.8,2271.1-19.4,2282.8-58.3c7.8-23.3,23.3-178.9,38.9-346.1l23.3-295.5L6940.6-3488.9L5653.3-4764.4l346.1-31.1c474.5-42.8,1256.1,23.3,1559.4,136.1c132.2,46.7,245,77.8,256.7,66.1c7.8-7.8-3.9-237.2-23.3-509.5l-42.8-497.8l-217.8-81.7c-579.4-217.8-1466.1-272.2-2177.8-136.1c-435.5,85.5-937.2,73.9-1046.1-27.2c-38.9-38.9-81.7-66.1-93.3-66.1c-31.1,0-497.8,715.6-497.8,762.2c0,23.4,544.4,595,1209.4,1271.7L6135.6-2645H4716.1H3296.7l-66.1-357.8c-35-198.3-132.2-711.7-213.9-1139.4c-81.7-427.8-159.4-843.9-171.1-921.7l-27.2-147.8h-676.7c-630,0-680.6,3.9-680.6,70c0,38.9,132.2,680.5,295.6,1427.2c159.4,750.5,326.7,1520.6,365.6,1711.1c42.8,194.4,171.1,797.2,291.7,1341.7c120.6,544.4,237.2,1096.7,260.6,1225c58.3,334.4,73.9,346.1,416.1,315C3250,866.7,4163.9,855,5124.5,855z"
       id="path4"
       style="fill:#60be86;fill-opacity:1" /></g></g>
</svg>
