<?xml version="1.0" encoding="UTF-8" standalone="no"?>
<svg
   xmlns:dc="http://purl.org/dc/elements/1.1/"
   xmlns:cc="http://creativecommons.org/ns#"
   xmlns:rdf="http://www.w3.org/1999/02/22-rdf-syntax-ns#"
   xmlns:svg="http://www.w3.org/2000/svg"
   xmlns="http://www.w3.org/2000/svg"
   xmlns:sodipodi="http://sodipodi.sourceforge.net/DTD/sodipodi-0.dtd"
   xmlns:inkscape="http://www.inkscape.org/namespaces/inkscape"
   viewBox="0 0 128 128"
   version="1.1"
   id="svg4"
   sodipodi:docname="gitlab.svg"
   inkscape:version="1.0.1 (1.0.1+r74)">
  <metadata
     id="metadata10">
    <rdf:RDF>
      <cc:Work
         rdf:about="">
        <dc:format>image/svg+xml</dc:format>
        <dc:type
           rdf:resource="http://purl.org/dc/dcmitype/StillImage" />
      </cc:Work>
    </rdf:RDF>
  </metadata>
  <defs
     id="defs8" />
  <sodipodi:namedview
     pagecolor="#ffffff"
     bordercolor="#666666"
     borderopacity="1"
     objecttolerance="10"
     gridtolerance="10"
     guidetolerance="10"
     inkscape:pageopacity="0"
     inkscape:pageshadow="2"
     inkscape:window-width="1920"
     inkscape:window-height="1029"
     id="namedview6"
     showgrid="false"
     inkscape:zoom="4.7343009"
     inkscape:cx="60.839516"
     inkscape:cy="79.621216"
     inkscape:window-x="0"
     inkscape:window-y="0"
     inkscape:window-maximized="1"
     inkscape:current-layer="svg4" />
  <path
     fill="#E24329"
     d="M126.615 72.31l-7.034-21.646-13.94-42.902c-.54-1.662-2.44-2.07-3.654-1.23-.4.276-.724.853-.902 1.398L87.144 51H40.856L31.62 22.41 26.917 7.847a2.748 2.748 0 0 0-.372-.767c-.078-.104-.18-.194-.27-.28-.937-.89-2.465-.876-3.36.072a2.336 2.336 0 0 0-.556.894l-13.94 42.9-2.946 9.068L1.385 72.31a4.78 4.78 0 0 0 .85 4.496c.26.317.55.613.89.86L64 121.895l60.874-44.227a4.785 4.785 0 0 0 1.74-5.357zm-7.034-21.647z"
     id="path2"
     style="fill:#60be86;fill-opacity:1" />
</svg>
