<?xml version="1.0" encoding="UTF-8" standalone="no"?>
<svg
   xmlns:dc="http://purl.org/dc/elements/1.1/"
   xmlns:cc="http://creativecommons.org/ns#"
   xmlns:rdf="http://www.w3.org/1999/02/22-rdf-syntax-ns#"
   xmlns:svg="http://www.w3.org/2000/svg"
   xmlns="http://www.w3.org/2000/svg"
   xmlns:sodipodi="http://sodipodi.sourceforge.net/DTD/sodipodi-0.dtd"
   xmlns:inkscape="http://www.inkscape.org/namespaces/inkscape"
   version="1.1"
   id="Capa_1"
   x="0px"
   y="0px"
   viewBox="0 0 21 20"
   xml:space="preserve"
   sodipodi:docname="json.svg"
   inkscape:version="1.0.1 (1.0.1+r74)"
   width="21"
   height="20"><path
   d="m 5,7.0000004 v -4 c 0,-0.551 0.448,-1 1,-1 C 6.553,2.0000004 7,1.552 7,1 7,0.448 6.553,0 6,0 4.346,0 3,1.346 3,3.0000004 v 4 c 0,1.103 -0.897,2 -2,2 -0.553,0 -1,0.448 -1,0.9999996 0,0.552 0.447,1 1,1 1.103,0 2,0.897 2,2 v 4 c 0,1.654 1.346,3 3,3 0.553,0 1,-0.448 1,-1 C 7,18.448 6.553,18 6,18 5.448,18 5,17.551 5,17 V 13 C 5,11.8 4.458,10.734 3.618,10 4.458,9.2660004 5,8.2000004 5,7.0000004 Z"
   id="path12"
   style="fill:#60be86;fill-opacity:1" /><path
   d="m 15.893471,7 c 0,1.2 0.542,2.266 1.382,2.9999991 -0.84,0.7339999 -1.382,1.7999999 -1.382,2.9999999 v 4 c 0,0.551 -0.448,1 -1,1 -0.553,0 -1,0.448 -1,1 0,0.552 0.447,1 1,1 1.654,0 3,-1.346 3,-3 v -4 c 0,-1.103 0.897,-2 2,-2 0.553,0 1,-0.448 1,-0.9999999 C 20.893471,9.448 20.446471,9 19.893471,9 c -1.103,0 -2,-0.897 -2,-2 V 3 c 0,-1.654 -1.346,-3 -3,-3 -0.553,0 -1,0.448 -1,1 0,0.552 0.447,1 1,1 0.552,0 1,0.449 1,1 z"
   id="path12-3"
   style="fill:#60be86;fill-opacity:1" /><metadata
   id="metadata55"><rdf:RDF><cc:Work
       rdf:about=""><dc:format>image/svg+xml</dc:format><dc:type
         rdf:resource="http://purl.org/dc/dcmitype/StillImage" /><dc:title></dc:title></cc:Work></rdf:RDF></metadata><defs
   id="defs53">
	
	
	
	
	
	
	
	
</defs><sodipodi:namedview
   pagecolor="#ffffff"
   bordercolor="#666666"
   borderopacity="1"
   objecttolerance="10"
   gridtolerance="10"
   guidetolerance="10"
   inkscape:pageopacity="0"
   inkscape:pageshadow="2"
   inkscape:window-width="1920"
   inkscape:window-height="1029"
   id="namedview51"
   showgrid="false"
   inkscape:zoom="10.448112"
   inkscape:cx="28.170847"
   inkscape:cy="28.294071"
   inkscape:window-x="0"
   inkscape:window-y="0"
   inkscape:window-maximized="1"
   inkscape:current-layer="Capa_1"
   inkscape:document-rotation="0" />

<g
   id="g20">
</g>
<g
   id="g22">
</g>
<g
   id="g24">
</g>
<g
   id="g26">
</g>
<g
   id="g28">
</g>
<g
   id="g30">
</g>
<g
   id="g32">
</g>
<g
   id="g34">
</g>
<g
   id="g36">
</g>
<g
   id="g38">
</g>
<g
   id="g40">
</g>
<g
   id="g42">
</g>
<g
   id="g44">
</g>
<g
   id="g46">
</g>
<g
   id="g48">
</g>
</svg>
