<?xml version="1.0" encoding="UTF-8" standalone="no"?>
<svg
   xmlns:dc="http://purl.org/dc/elements/1.1/"
   xmlns:cc="http://creativecommons.org/ns#"
   xmlns:rdf="http://www.w3.org/1999/02/22-rdf-syntax-ns#"
   xmlns:svg="http://www.w3.org/2000/svg"
   xmlns="http://www.w3.org/2000/svg"
   xmlns:sodipodi="http://sodipodi.sourceforge.net/DTD/sodipodi-0.dtd"
   xmlns:inkscape="http://www.inkscape.org/namespaces/inkscape"
   id="Linkedin"
   viewBox="0 0 128 128"
   version="1.1"
   sodipodi:docname="linkedin.svg"
   inkscape:version="1.0.1 (1.0.1+r74)">
  <metadata
     id="metadata10">
    <rdf:RDF>
      <cc:Work
         rdf:about="">
        <dc:format>image/svg+xml</dc:format>
        <dc:type
           rdf:resource="http://purl.org/dc/dcmitype/StillImage" />
      </cc:Work>
    </rdf:RDF>
  </metadata>
  <defs
     id="defs8" />
  <sodipodi:namedview
     pagecolor="#ffffff"
     bordercolor="#666666"
     borderopacity="1"
     objecttolerance="10"
     gridtolerance="10"
     guidetolerance="10"
     inkscape:pageopacity="0"
     inkscape:pageshadow="2"
     inkscape:window-width="1920"
     inkscape:window-height="1029"
     id="namedview6"
     showgrid="false"
     inkscape:zoom="4.7343009"
     inkscape:cx="61.148847"
     inkscape:cy="81.167871"
     inkscape:window-x="0"
     inkscape:window-y="0"
     inkscape:window-maximized="1"
     inkscape:current-layer="Linkedin" />
  <title
     id="title2">Artboard 14</title>
  <path
     id="plain"
     d="M116,3H12a8.91,8.91,0,0,0-9,8.8V116.22A8.91,8.91,0,0,0,12,125H116a8.93,8.93,0,0,0,9-8.81V11.77A8.93,8.93,0,0,0,116,3ZM39.17,107H21.06V48.73H39.17Zm-9-66.21a10.5,10.5,0,1,1,10.49-10.5A10.5,10.5,0,0,1,30.12,40.77ZM107,107H88.89V78.65c0-6.75-.12-15.44-9.41-15.44s-10.87,7.36-10.87,15V107H50.53V48.73H67.89v8h.24c2.42-4.58,8.32-9.41,17.13-9.41C103.6,47.28,107,59.35,107,75Z"
     style="fill:#60be86;fill-opacity:1" />
</svg>
