<?xml version="1.0" encoding="UTF-8" standalone="no"?>
<svg
   xmlns:dc="http://purl.org/dc/elements/1.1/"
   xmlns:cc="http://creativecommons.org/ns#"
   xmlns:rdf="http://www.w3.org/1999/02/22-rdf-syntax-ns#"
   xmlns:svg="http://www.w3.org/2000/svg"
   xmlns="http://www.w3.org/2000/svg"
   xmlns:sodipodi="http://sodipodi.sourceforge.net/DTD/sodipodi-0.dtd"
   xmlns:inkscape="http://www.inkscape.org/namespaces/inkscape"
   width="256px"
   height="230px"
   viewBox="0 0 256 230"
   version="1.1"
   preserveAspectRatio="xMidYMid"
   id="svg30"
   sodipodi:docname="14857762561551941182.svg"
   inkscape:version="1.0.1 (1.0.1+r74)">
  <metadata
     id="metadata34">
    <rdf:RDF>
      <cc:Work
         rdf:about="">
        <dc:format>image/svg+xml</dc:format>
        <dc:type
           rdf:resource="http://purl.org/dc/dcmitype/StillImage" />
      </cc:Work>
    </rdf:RDF>
  </metadata>
  <sodipodi:namedview
     pagecolor="#ffffff"
     bordercolor="#666666"
     borderopacity="1"
     objecttolerance="10"
     gridtolerance="10"
     guidetolerance="10"
     inkscape:pageopacity="0"
     inkscape:pageshadow="2"
     inkscape:window-width="1920"
     inkscape:window-height="1029"
     id="namedview32"
     showgrid="false"
     inkscape:zoom="2.6347414"
     inkscape:cx="101.02598"
     inkscape:cy="148.29417"
     inkscape:window-x="0"
     inkscape:window-y="0"
     inkscape:window-maximized="1"
     inkscape:current-layer="svg30" />
  <defs
     id="defs12">
    <linearGradient
       x1="39.844959"
       y1="48.848584"
       x2="159.84623"
       y2="164.30436"
       id="linearGradient-1"
       gradientTransform="scale(1.0675875,0.93669133)"
       gradientUnits="userSpaceOnUse">
      <stop
         stop-color="#C7F994"
         offset="0%"
         id="stop2" />
      <stop
         stop-color="#87CF3E"
         offset="100%"
         id="stop4" />
    </linearGradient>
    <linearGradient
       x1="58.2694"
       y1="217.33891"
       x2="143.21923"
       y2="114.27452"
       id="linearGradient-2"
       gradientTransform="scale(1.1368183,0.87964805)"
       gradientUnits="userSpaceOnUse">
      <stop
         stop-color="#3D3D3D"
         offset="0%"
         id="stop7" />
      <stop
         stop-color="#000000"
         stop-opacity="0.11400651"
         offset="100%"
         id="stop9" />
    </linearGradient>
  </defs>
  <path
     d="M 30.223287,145.85142 30.18058,96.677376 V 81.951191 H 0 V 0 L 127.27219,0.599374 167.0849,0.6850116 C 214.73176,0.68501163 256,36.730428 256,84.334555 V 229.50117 H 119.13845 c -47.604105,2e-5 -88.915163,-36.08835 -88.915163,-83.64975 z"
     opacity="0.26"
     fill="#000000"
     id="path14"
     style="fill:#60be86;fill-opacity:1;opacity:1" />
  <path
     d="M 237.71695,191.5368 V 85.995538 c 0,-35.260087 -30.92178,-63.842745 -69.07436,-63.842745 H 129.0439 v -0.08517 L 21.94451,21.599656 v 38.508532 h 16.440417 c 11.475784,0 13.503098,7.921932 13.503098,18.8868 l 0.08517,68.078722 c 0,35.26011 30.921909,63.84272 69.031905,63.84272 h 94.0935 c 12.06286,0 22.61841,-7.6393 22.61841,-19.37972 z"
     fill="url(#linearGradient-1)"
     id="path16"
     style="fill:#60be86;fill-opacity:1" />
  <path
     d="M 228.37818,200.45317 C 204.31526,183.8708 187.27264,164.82293 172.91694,139.60667 144.61828,87.330514 151.23509,61.380152 81.157627,55.260835 c -20.223505,0 -33.685107,-4.476065 -54.971664,-4.476065 v 7.413482 c 2e-6,2.2e-5 8.412049,4.269024 15.806102,4.269024 11.026106,2.2e-5 12.938623,7.64881 12.938623,18.18401 l 0.06994,65.249844 c -6e-6,33.87839 29.754991,61.33607 66.371642,61.33607 h 90.36054 c 6.63259,0 12.59054,-2.61373 16.64537,-6.78403 z"
     opacity="0.175141"
     fill="url(#linearGradient-2)"
     id="path18"
     style="fill:url(#linearGradient-2)" />
  <path
     d="m 144.63312,61.714961 c -8.58668,0 -16.21621,3.187965 -22.34639,9.380488 -6.12711,6.189233 -9.34423,13.915994 -9.34421,22.635927 v 44.077284 h 19.99225 V 93.731376 c 0,-3.342233 1.09055,-5.955583 3.47689,-8.366167 2.39418,-2.418306 4.92949,-3.513062 8.22146,-3.513062 3.36096,0 5.85823,1.089251 8.25764,3.513062 2.38637,2.410584 3.47692,5.023934 3.47692,8.366167 v 44.077284 h 19.99227 V 93.731376 c 0,-3.342233 1.09055,-5.955583 3.47692,-8.366167 2.39942,-2.423811 4.89668,-3.513062 8.25769,-3.513062 3.29199,0 5.82723,1.094756 8.22141,3.513062 2.38635,2.410584 3.47692,5.023934 3.47692,8.366167 l 0.10877,51.502084 c 0,10.98637 -10.46249,20.24564 -23.90378,20.24564 l -64.46774,-0.25348 c -10.37262,0 -19.231695,-10.09614 -19.231695,-23.07079 V 45.169078 H 73.392754 V 145.8852 c 0,10.68595 3.910247,20.05675 11.51728,27.63432 6.501915,6.41779 14.321333,10.21539 23.106986,11.15496 v 0.36236 h 71.78373 c 11.03063,0 20.72158,-4.10153 28.53965,-12.06084 h 0.0363 c 6.64924,-6.83148 10.53636,-15.01715 11.48104,-24.22948 l -0.0725,-55.015144 c 0,-8.719933 -3.21703,-16.446694 -9.34425,-22.635927 -6.1301,-6.192523 -13.75969,-9.380488 -22.34635,-9.380488 -8.42852,0 -15.80348,3.134185 -21.76694,8.873328 -5.94603,-5.729676 -13.26947,-8.873328 -21.6945,-8.873328 z"
     fill-opacity="0.080402"
     fill="#000000"
     id="path20" />
  <path
     d="m 143.03656,62.239752 c -8.58668,0 -16.2162,3.187953 -22.34639,9.380485 -6.12713,6.189223 -9.34424,13.915997 -9.34422,22.635916 v 44.077297 h 19.99227 V 94.256153 c 0,-3.342215 1.09054,-5.95558 3.47688,-8.366167 2.39419,-2.418292 4.9295,-3.51306 8.22146,-3.51306 3.36096,0 5.85823,1.089261 8.25765,3.51306 2.38636,2.410587 3.47693,5.023952 3.47693,8.366167 v 44.077297 h 19.99224 V 94.256153 c 0,-3.342215 1.09056,-5.95558 3.47694,-8.366167 2.3994,-2.423799 4.89667,-3.51306 8.25769,-3.51306 3.29199,0 5.82723,1.094768 8.22138,3.51306 2.38636,2.410587 3.47693,5.023952 3.47693,8.366167 l 0.10864,51.502097 c 0,10.98636 -10.46249,20.24563 -23.90377,20.24563 l -64.46773,-0.25347 c -10.372622,0 -19.23169,-10.09615 -19.23169,-23.0708 V 45.693868 H 71.79608 V 146.40998 c 0,10.68595 3.910251,20.05675 11.517279,27.63434 6.501907,6.41777 14.32134,10.5779 23.106961,11.51747 l 71.78376,-1.7e-4 c 11.03063,0 20.72156,-4.10152 28.53965,-12.06083 h 0.0363 c 6.64921,-6.8315 10.53637,-15.01715 11.48104,-24.22948 l -0.0724,-55.015157 c 0,-8.719919 -3.21701,-16.446693 -9.34422,-22.635916 -6.13012,-6.192532 -13.75971,-9.380485 -22.34635,-9.380485 -8.42852,0 -15.80348,3.134185 -21.76696,8.873326 -5.94604,-5.729685 -13.26945,-8.873326 -21.69449,-8.873326 z"
     fill="#ffffff"
     id="path22" />
  <path
     d="m 131.27977,165.81741 v 19.74421 h 46.95921 c 11.03059,0 20.66427,-4.11401 28.48233,-12.07332 h 0.0668 c 6.64923,-6.83151 10.52832,-15.00101 11.47299,-24.21334 v -11.20617 h -19.94432 v 7.67089 c 0,10.98643 -10.43856,20.21114 -23.87984,20.21114 l -43.15709,-0.13341 z"
     opacity="0.3"
     fill="#52a800"
     id="path24" />
  <path
     d="m 120.37941,225.53178 c -45.443958,0 -84.880446,-34.45081 -84.880446,-79.85404 L 35.458195,90.548425 V 76.490483 H 6.6471224 V 6.4445337 l 121.4970176,0.5721765 38.00617,0.081752 c 45.48479,0 84.88043,34.4098048 84.88043,79.8538058 V 225.53176 H 120.37948 Z M 232.5179,188.35787 V 86.952289 c 0,-33.878397 -29.71008,-61.341036 -66.36765,-61.341036 h -38.04701 v -0.08175 L 25.200618,25.079867 v 32.897846 h 11.52714 c 7.825965,0 17.242993,7.354388 17.242993,18.146701 l 0.08175,69.512766 c 0,33.87842 29.710234,61.34102 66.326889,61.34102 h 90.40639 c 11.59015,0 21.7321,-7.33996 21.7321,-18.62033 z"
     fill="#ffffff"
     id="path26" />
</svg>
