<?xml version="1.0" encoding="UTF-8" standalone="no"?>
<svg
   xmlns:dc="http://purl.org/dc/elements/1.1/"
   xmlns:cc="http://creativecommons.org/ns#"
   xmlns:rdf="http://www.w3.org/1999/02/22-rdf-syntax-ns#"
   xmlns:svg="http://www.w3.org/2000/svg"
   xmlns="http://www.w3.org/2000/svg"
   xmlns:sodipodi="http://sodipodi.sourceforge.net/DTD/sodipodi-0.dtd"
   xmlns:inkscape="http://www.inkscape.org/namespaces/inkscape"
   version="1.1"
   x="0px"
   y="0px"
   viewBox="0 0 1000 1000"
   enable-background="new 0 0 1000 1000"
   xml:space="preserve"
   id="svg8"
   sodipodi:docname="mint.svg"
   inkscape:version="1.0.1 (1.0.1+r74)"><defs
   id="defs12" /><sodipodi:namedview
   pagecolor="#ffffff"
   bordercolor="#666666"
   borderopacity="1"
   objecttolerance="10"
   gridtolerance="10"
   guidetolerance="10"
   inkscape:pageopacity="0"
   inkscape:pageshadow="2"
   inkscape:window-width="1920"
   inkscape:window-height="1029"
   id="namedview10"
   showgrid="false"
   inkscape:zoom="0.4285"
   inkscape:cx="474.64746"
   inkscape:cy="693.77792"
   inkscape:window-x="0"
   inkscape:window-y="0"
   inkscape:window-maximized="1"
   inkscape:current-layer="svg8" />
<metadata
   id="metadata2"> Svg Vector Icons : http://www.onlinewebfonts.com/icon <rdf:RDF><cc:Work
     rdf:about=""><dc:format>image/svg+xml</dc:format><dc:type
       rdf:resource="http://purl.org/dc/dcmitype/StillImage" /></cc:Work></rdf:RDF></metadata>
<g
   id="g6"
   style="fill-opacity:1;fill:#60be86"><path
     d="M10,79.1v171.2h74.6c52.1,0,61.3,35.3,61.3,84l0.4,302.7c0,156.8,140.5,283.8,313.6,283.8h427.3c54.8,0,102.7-33.9,102.7-86.1V365.5c0-156.8-140.4-283.8-313.7-283.8H496.4v-0.5L10,79.1z M243.7,183.9h85.8v431.3c0,57.7,40.2,102.5,87.3,102.5l292.8,1.2c61.1,0,108.7-41.2,108.7-90.1l-0.5-229c0-14.9-4.9-26.4-15.8-37.1C791.1,352,779.5,347,764.6,347c-15.3,0-26.5,4.9-37.5,15.7c-10.8,10.7-15.8,22.3-15.8,37.1v195.9h-90.8V399.9c0-14.9-5-26.4-15.9-37.1c-10.9-10.8-22.2-15.7-37.4-15.7c-14.9,0-26.4,4.9-37.3,15.7C519.1,373.4,514,385,514,399.9v195.9h-90.8V399.9c0-38.7,14.7-73.2,42.5-100.7c27.8-27.5,62.5-41.7,101.5-41.7c38.3,0,71.5,14.1,98.5,39.6c27.1-25.5,60.5-39.6,98.8-39.6c39,0,73.6,14.2,101.5,41.7c27.8,27.5,42.5,61.9,42.5,100.7l0.4,244.7c-4.3,41-22,77.3-52.2,107.7h-0.1c-35.5,35.4-79.4,53.7-129.6,53.7H401v-1.6c-39.9-4.2-75.4-21.2-104.9-49.7c-34.5-33.7-52.3-75.4-52.3-122.9L243.7,183.9L243.7,183.9z"
     id="path4"
     style="fill-opacity:1;fill:#60be86" /></g>
</svg>
