<?xml version="1.0" encoding="UTF-8" standalone="no"?>
<svg
   xmlns:dc="http://purl.org/dc/elements/1.1/"
   xmlns:cc="http://creativecommons.org/ns#"
   xmlns:rdf="http://www.w3.org/1999/02/22-rdf-syntax-ns#"
   xmlns:svg="http://www.w3.org/2000/svg"
   xmlns="http://www.w3.org/2000/svg"
   xmlns:sodipodi="http://sodipodi.sourceforge.net/DTD/sodipodi-0.dtd"
   xmlns:inkscape="http://www.inkscape.org/namespaces/inkscape"
   viewBox="0 0 128 28.5"
   version="1.1"
   id="svg6"
   sodipodi:docname="nginx.svg"
   inkscape:version="1.0.1 (1.0.1+r74)"
   width="128"
   height="28.5">
  <metadata
     id="metadata12">
    <rdf:RDF>
      <cc:Work
         rdf:about="">
        <dc:format>image/svg+xml</dc:format>
        <dc:type
           rdf:resource="http://purl.org/dc/dcmitype/StillImage" />
        <dc:title></dc:title>
      </cc:Work>
    </rdf:RDF>
  </metadata>
  <defs
     id="defs10" />
  <sodipodi:namedview
     pagecolor="#ffffff"
     bordercolor="#666666"
     borderopacity="1"
     objecttolerance="10"
     gridtolerance="10"
     guidetolerance="10"
     inkscape:pageopacity="0"
     inkscape:pageshadow="2"
     inkscape:window-width="1920"
     inkscape:window-height="1029"
     id="namedview8"
     showgrid="false"
     inkscape:zoom="6.6953125"
     inkscape:cx="64.149358"
     inkscape:cy="34.128355"
     inkscape:window-x="0"
     inkscape:window-y="0"
     inkscape:window-maximized="1"
     inkscape:current-layer="svg6"
     inkscape:document-rotation="0" />
  <g
     fill="#090"
     id="g4"
     style="fill:#60be86;fill-opacity:1"
     transform="translate(0,-49.5)">
    <path
       d="M 24.5,50.5 C 23,50.5 22,51.7 22,53.2 V 67.3 L 6.1,51.3 C 5.3,50.5 3.9,50.3 2.9,50.7 1.9,51.1 1,52.1 1,53.2 v 20.7 c 0,1.5 1.5,2.7 3,2.7 1.5,0 3,-1.2 3,-2.7 V 59.8 l 16.1,16 c 0.5,0.5 1.2,0.8 1.9,0.8 0.3,0 0.4,-0.1 0.7,-0.2 C 26.7,76 27,75 27,73.9 V 53.3 c 0,-1.5 -1,-2.8 -2.5,-2.8 z m 19.7,11.8 c -1.4,0 -2.7,1.4 -2.7,2.8 0,1.4 1.3,2.8 2.7,2.8 l 6.6,0.4 -1.5,3.7 H 40.8 L 36.6,64.1 40.9,56 H 50 l 2.1,4 h 5.5 L 54,52.1 53.2,51 H 37.6 l -0.7,1.2 -5.9,10.3 -0.7,1.3 0.7,1.3 5.8,10.3 0.8,1.6 h 15.1 l 0.7,-1.7 4.3,-9 1.9,-4.3 H 55.2 Z M 65,50.5 c -1.4,0 -3,1.3 -3,2.7 V 60 h 6 v -6.7 c 0,-1.5 -1.6,-2.8 -3,-2.8 z m 30.4,0.3 c -1,-0.4 -2.4,-0.2 -3.1,0.6 L 76,67.4 V 53.3 C 76,51.8 75,50.6 73.5,50.6 72,50.6 71,51.8 71,53.3 V 74 c 0,1.1 0.7,2.1 1.7,2.5 0.3,0.1 0.7,0.2 1,0.2 0.7,0 1.6,-0.3 2.1,-0.8 L 92,59.9 V 74 c 0,1.5 1,2.7 2.5,2.7 C 96,76.7 97,75.5 97,74 V 53.3 c 0,-1.1 -0.6,-2.1 -1.6,-2.5 z m 21.8,12.8 8.4,-8.4 c 1.1,-1.1 1.1,-2.8 0,-3.8 -1.1,-1.1 -2.8,-1.1 -3.8,0 l -8.4,8.4 -8.4,-8.4 c -1.1,-1.1 -2.8,-1.1 -3.8,0 -1.1,1.1 -1.1,2.8 0,3.8 l 8.4,8.4 -8.4,8.4 c -1.1,1.1 -1.1,2.8 0,3.8 0.5,0.5 1.2,0.8 1.9,0.8 0.7,0 1.4,-0.3 1.9,-0.8 l 8.4,-8.4 8.4,8.4 c 0.5,0.5 1.2,0.8 1.9,0.8 0.7,0 1.4,-0.3 1.9,-0.8 1.1,-1.1 1.1,-2.8 0,-3.8 z M 62,73.9 c 0,1.4 1.5,2.7 3,2.7 1.4,0 3,-1.3 3,-2.7 V 62 h -6 z"
       id="path2"
       style="fill:#60be86;fill-opacity:1" />
  </g>
</svg>
