<?xml version="1.0" encoding="UTF-8" standalone="no"?>
<svg
   xmlns:dc="http://purl.org/dc/elements/1.1/"
   xmlns:cc="http://creativecommons.org/ns#"
   xmlns:rdf="http://www.w3.org/1999/02/22-rdf-syntax-ns#"
   xmlns:svg="http://www.w3.org/2000/svg"
   xmlns="http://www.w3.org/2000/svg"
   xmlns:sodipodi="http://sodipodi.sourceforge.net/DTD/sodipodi-0.dtd"
   xmlns:inkscape="http://www.inkscape.org/namespaces/inkscape"
   version="1.1"
   x="0px"
   y="0px"
   viewBox="0 0 1000 1000"
   enable-background="new 0 0 1000 1000"
   xml:space="preserve"
   id="svg16"
   sodipodi:docname="nosql.svg"
   inkscape:version="1.0.1 (1.0.1+r74)"><defs
   id="defs20" /><sodipodi:namedview
   pagecolor="#ffffff"
   bordercolor="#666666"
   borderopacity="1"
   objecttolerance="10"
   gridtolerance="10"
   guidetolerance="10"
   inkscape:pageopacity="0"
   inkscape:pageshadow="2"
   inkscape:window-width="1920"
   inkscape:window-height="1029"
   id="namedview18"
   showgrid="false"
   inkscape:zoom="0.857"
   inkscape:cx="501.16686"
   inkscape:cy="500"
   inkscape:window-x="0"
   inkscape:window-y="0"
   inkscape:window-maximized="1"
   inkscape:current-layer="svg16" />
<metadata
   id="metadata2"> Svg Vector Icons : http://www.onlinewebfonts.com/icon <rdf:RDF><cc:Work
     rdf:about=""><dc:format>image/svg+xml</dc:format><dc:type
       rdf:resource="http://purl.org/dc/dcmitype/StillImage" /></cc:Work></rdf:RDF></metadata>
<g
   id="g14"
   style="fill:#60be86;fill-opacity:1"><path
     d="M423.5,567.3c62.6,0,121.6-6.3,174.8-17.4c33.7-92.8,122.5-159.5,226.8-159.5c3.8,0,7.4,0.4,11.1,0.6c0.2-2.6,0.9-5.1,0.9-7.8l0-140.7c0,101.7-185.1,184-413.5,184S10,344.3,10,242.6v140.7C10,485,195.1,567.3,423.5,567.3"
     id="path4"
     style="fill:#60be86;fill-opacity:1" /><path
     d="M423.5,376.1c228.4,0,413.5-82.4,413.5-184.1C837.1,90.4,652,8,423.5,8S10,90.4,10,192C10,293.8,195.1,376.1,423.5,376.1"
     id="path6"
     style="fill:#60be86;fill-opacity:1" /><path
     d="M423.5,758.6c23,0,45.3-1,67.3-2.7l94-94c0.2-0.2,0.4-0.4,0.6-0.6c-1.2-9.6-1.8-19.5-1.8-29.4c0-9.7,0.7-19.2,1.8-28.7c-49.7,9.4-104.5,14.7-162,14.7c-228.4,0-413.5-82.4-413.5-184v140.7C10,676.2,195.1,758.6,423.5,758.6"
     id="path8"
     style="fill:#60be86;fill-opacity:1" /><path
     d="M416.7,830l21.3-21.3c-4.9,0.1-9.6,0.3-14.5,0.3C195.1,809.1,10,726.7,10,625v140.7c0,96.8,167.7,175.8,380.7,183.3C385.4,902.9,393.5,853.3,416.7,830"
     id="path10"
     style="fill:#60be86;fill-opacity:1" /><path
     d="M660.1,631.9c0,91.1,73.9,164.9,164.9,164.9c91.1,0,164.9-73.8,164.9-164.9c0-91.1-73.9-164.9-164.9-164.9C734,467,660.1,540.8,660.1,631.9 M827.5,574.5c0-30.3,24.6-54.9,54.9-54.9c30.3,0,54.9,24.6,54.9,54.9c0,30.4-24.6,55-54.9,55C852.1,629.5,827.5,604.8,827.5,574.5 M770.7,828.3v6.3c0,9.1-7.4,16.5-16.5,16.5h-45.3v45.3c0,9-7.4,16.4-16.4,16.4h-45.3v45.3c0,9-7.4,16.5-16.5,16.5h-46.2L573,986.1c-7,7-77.6,10.8-95.2-6.9c-17.7-17.6-13.9-88.2-6.9-95.2l168-168.1c5.9,13.1,13.3,25.3,21.8,36.8L515.9,897.5c-7,7.1-7,18.5,0,25.5c7,7,18.5,7,25.5,0l143-143.1C708.4,802.7,737.9,819.2,770.7,828.3"
     id="path12"
     style="fill:#60be86;fill-opacity:1" /></g>
</svg>
