<?xml version="1.0" encoding="UTF-8" standalone="no"?>
<svg
   xmlns:dc="http://purl.org/dc/elements/1.1/"
   xmlns:cc="http://creativecommons.org/ns#"
   xmlns:rdf="http://www.w3.org/1999/02/22-rdf-syntax-ns#"
   xmlns:svg="http://www.w3.org/2000/svg"
   xmlns="http://www.w3.org/2000/svg"
   xmlns:sodipodi="http://sodipodi.sourceforge.net/DTD/sodipodi-0.dtd"
   xmlns:inkscape="http://www.inkscape.org/namespaces/inkscape"
   version="1.1"
   id="Capa_1"
   x="0px"
   y="0px"
   viewBox="0 0 512 417"
   xml:space="preserve"
   sodipodi:docname="perl.svg"
   inkscape:version="1.0.1 (1.0.1+r74)"
   width="512"
   height="417"><metadata
   id="metadata49"><rdf:RDF><cc:Work
       rdf:about=""><dc:format>image/svg+xml</dc:format><dc:type
         rdf:resource="http://purl.org/dc/dcmitype/StillImage" /><dc:title></dc:title></cc:Work></rdf:RDF></metadata><defs
   id="defs47" /><sodipodi:namedview
   pagecolor="#ffffff"
   bordercolor="#666666"
   borderopacity="1"
   objecttolerance="10"
   gridtolerance="10"
   guidetolerance="10"
   inkscape:pageopacity="0"
   inkscape:pageshadow="2"
   inkscape:window-width="1920"
   inkscape:window-height="1029"
   id="namedview45"
   showgrid="false"
   inkscape:zoom="1.1835752"
   inkscape:cx="263.89764"
   inkscape:cy="298.93514"
   inkscape:window-x="0"
   inkscape:window-y="0"
   inkscape:window-maximized="1"
   inkscape:current-layer="Capa_1"
   inkscape:document-rotation="0" />
<g
   id="g6"
   style="fill:#60be86;fill-opacity:1"
   transform="translate(0,-47.847799)">
	<g
   id="g4"
   style="fill:#60be86;fill-opacity:1">
		<path
   d="m 80.648,73.146 h -3.257 c -4.143,0 -7.5,3.357 -7.5,7.5 0,4.143 3.357,7.5 7.5,7.5 h 3.257 c 4.143,0 7.5,-3.357 7.5,-7.5 0,-4.143 -3.357,-7.5 -7.5,-7.5 z"
   id="path2"
   style="fill:#60be86;fill-opacity:1" />
	</g>
</g>
<g
   id="g12"
   style="fill:#60be86;fill-opacity:1"
   transform="translate(0,-47.847799)">
	<g
   id="g10"
   style="fill:#60be86;fill-opacity:1">
		<path
   d="m 509.804,291.026 -0.973,-0.973 c -3.126,-3.125 -4.848,-7.281 -4.848,-11.701 v -37.007 c 0,-13.259 -6.586,-25.565 -17.618,-32.92 l -7.09,-4.726 C 474.925,163.111 449.439,138.94 422.086,118.931 407.953,108.593 398.719,98.063 390.572,88.772 378.465,74.966 368.009,63.043 348.853,63.043 c -16.407,0 -22.371,10.479 -26.726,18.131 -4.36,7.664 -7.229,12.737 -18.952,12.598 -8.155,-0.088 -11.607,-5.258 -17.008,-14.389 -6.012,-10.162 -14.247,-24.081 -34.939,-18.044 -17.256,5.032 -26.912,30.21 -38.094,59.363 -7.52,19.604 -15.294,39.873 -25.215,52.831 -3.432,4.481 -15.871,19.104 -31.872,19.104 h -4.258 c -13.545,0 -24.564,-11.02 -24.564,-24.564 V 82.238 l 13.334,-11.112 c 2.897,-2.415 3.551,-6.606 1.525,-9.788 -0.132,-0.206 -10.837,-16.515 -31.28,-12.992 H 81.59 c -8.426,0 -16.349,3.281 -22.309,9.24 l -7.288,7.289 -25.632,4.271 C 11.087,71.693 0,84.78 0,100.266 v 3.677 c 0,8.556 6.961,15.516 15.517,15.516 h 55.961 v 61.969 c 0,24.423 12.293,48.432 33.728,65.868 22.316,18.155 53.028,28.161 86.477,28.176 0.347,0 0.705,0.187 0.705,0.498 v 149.328 c -8.87,1.141 -16.416,7.242 -19.301,15.897 l -4.362,13.086 c -0.763,2.287 -0.379,4.802 1.031,6.758 1.409,1.955 3.673,3.114 6.084,3.114 h 48.097 c 3.935,0 7.2,-3.041 7.481,-6.966 l 9.041,-126.583 c 13.185,40.499 20.244,78.695 22.894,94.876 -8.354,1.509 -15.364,7.446 -18.121,15.715 l -4.362,13.086 c -0.763,2.287 -0.379,4.802 1.031,6.758 1.409,1.955 3.673,3.114 6.084,3.114 h 48.098 c 2.096,0 4.096,-0.877 5.516,-2.418 1.42,-1.542 2.131,-3.606 1.959,-5.695 l -8.017,-97.697 c -0.035,-0.437 -0.109,-0.869 -0.221,-1.293 l -18.792,-71.503 c 19.853,-1.856 38.831,-5.376 56.716,-10.553 3.979,-1.151 6.271,-5.311 5.119,-9.289 -1.151,-3.979 -5.312,-6.272 -9.289,-5.119 -25.903,7.496 -54.274,11.355 -84.435,11.503 l 1.458,-20.409 c 0.296,-4.132 -2.814,-7.72 -6.946,-8.015 -4.119,-0.317 -7.721,2.814 -8.015,6.946 l -14.182,198.543 h -30.707 l 1.071,-3.215 c 1.163,-3.489 4.415,-5.834 8.094,-5.834 h 4.477 c 4.143,0 7.5,-3.357 7.5,-7.5 V 275.969 c 0,-8.542 -7.042,-15.494 -15.699,-15.498 C 125.834,260.443 86.48,220.259 86.48,181.427 v -69.469 c 0,-4.143 -3.357,-7.5 -7.5,-7.5 H 15.517 c -0.285,0 -0.517,-0.231 -0.517,-0.516 v -3.677 C 15,92.142 20.815,85.278 28.828,83.943 L 56.83,79.276 c 1.542,-0.258 2.965,-0.99 4.07,-2.096 l 8.987,-8.988 c 3.126,-3.125 7.282,-4.847 11.702,-4.847 h 9.584 c 0.176,0.586 0.418,1.161 0.748,1.709 2.135,3.55 6.743,4.695 10.293,2.563 10.766,-6.473 18.006,-5.155 22.334,-2.675 L 108.41,78.39 c -3.182,2.652 -3.611,7.381 -0.96,10.563 1.254,1.504 2.975,2.386 4.774,2.625 v 76.492 c 0,21.816 17.749,39.564 39.564,39.564 h 4.258 c 22.25,0 38.03,-17.473 43.782,-24.984 11.239,-14.68 19.409,-35.979 27.31,-56.578 8.519,-22.211 18.175,-47.386 28.288,-50.335 9.059,-2.639 11.652,0.836 17.829,11.28 5.384,9.102 12.757,21.566 29.757,21.752 20.503,0.232 27.252,-11.569 32.151,-20.179 4.271,-7.504 6.299,-10.55 13.688,-10.55 11.834,0 18.229,6.693 30.44,20.619 8.229,9.384 18.47,21.063 33.937,32.377 25.016,18.299 51.705,41.478 51.705,85.13 v 86.485 c 0,7.835 2.298,15.424 6.645,21.946 l 9.235,13.853 -7.381,110.7 h -30.674 l 1.071,-3.214 c 1.163,-3.49 4.416,-5.835 8.095,-5.835 h 4.477 c 4.143,0 7.5,-3.357 7.5,-7.5 v -72.146 c 0,-1.255 -0.314,-2.489 -0.916,-3.592 L 422.48,282.605 c -4.701,-8.621 -8.165,-17.85 -10.294,-27.431 l -9.67,-43.517 c -0.898,-4.043 -4.898,-6.595 -8.948,-5.694 -4.043,0.898 -6.593,4.904 -5.694,8.948 l 3.644,16.398 c -4.669,3.519 -15.203,10.737 -31.642,18.075 -3.782,1.688 -5.48,6.123 -3.792,9.905 1.245,2.79 3.983,4.445 6.853,4.445 1.021,0 2.06,-0.21 3.053,-0.653 1.388,-0.619 2.73,-1.238 4.042,-1.854 8.404,19.794 24.182,61.923 22.774,82.688 -2.122,31.292 -16.37,68.531 -21.549,81.19 -9.937,0.211 -18.664,6.621 -21.818,16.085 l -4.362,13.086 c -0.763,2.287 -0.379,4.802 1.031,6.757 1.409,1.956 3.673,3.115 6.084,3.115 h 40.081 c 3.027,0 5.759,-1.82 6.923,-4.615 l 40.08,-96.194 c 0.422,-1.012 0.616,-2.103 0.57,-3.197 l -0.783,-15.814 9.839,18.038 v 62.927 c -8.869,1.141 -16.416,7.242 -19.302,15.897 l -4.362,13.086 c -0.763,2.287 -0.379,4.802 1.031,6.758 1.409,1.955 3.673,3.114 6.084,3.114 h 48.097 c 3.948,0 7.221,-3.062 7.483,-7.001 l 8.017,-120.242 c 0.109,-1.647 -0.327,-3.285 -1.243,-4.659 l -10.646,-15.97 c -2.699,-4.05 -4.126,-8.762 -4.126,-13.627 V 222.31 c 5.699,4.641 9.048,11.59 9.048,19.03 v 37.007 c 0,8.427 3.281,16.35 9.24,22.309 l 0.973,0.973 c 1.465,1.464 3.385,2.196 5.304,2.196 1.919,0 3.839,-0.732 5.304,-2.196 2.928,-2.926 2.928,-7.674 0,-10.603 z m -266.238,-3.937 c 5.977,-0.009 11.892,-0.159 17.738,-0.45 l 19.34,73.586 7.297,88.928 H 258.39 l 1.071,-3.214 c 1.163,-3.49 4.416,-5.835 8.095,-5.835 h 4.477 c 2.162,0 4.22,-0.934 5.644,-2.561 1.425,-1.628 2.077,-3.791 1.79,-5.935 -0.393,-2.937 -9.912,-72.538 -36.389,-137.684 z M 387.274,449.153 H 362.6 l 1.071,-3.215 c 1.163,-3.489 4.415,-5.834 8.094,-5.834 h 4.478 c 2.968,0 5.656,-1.75 6.857,-4.464 0.894,-2.017 21.904,-49.867 24.673,-90.707 0.9,-13.271 -3.279,-33.339 -12.422,-59.646 -4.686,-13.483 -9.438,-25.028 -11.952,-30.928 4.676,-2.628 8.557,-5.067 11.653,-7.152 l 2.494,11.225 c 2.434,10.953 6.394,21.504 11.769,31.359 l 13.631,24.99 1.846,44.328 z"
   id="path8"
   style="fill:#60be86;fill-opacity:1" />
	</g>
</g>
<g
   id="g14">
</g>
<g
   id="g16">
</g>
<g
   id="g18">
</g>
<g
   id="g20">
</g>
<g
   id="g22">
</g>
<g
   id="g24">
</g>
<g
   id="g26">
</g>
<g
   id="g28">
</g>
<g
   id="g30">
</g>
<g
   id="g32">
</g>
<g
   id="g34">
</g>
<g
   id="g36">
</g>
<g
   id="g38">
</g>
<g
   id="g40">
</g>
<g
   id="g42">
</g>
</svg>
