<?xml version="1.0" encoding="UTF-8" standalone="no"?>
<svg
   xmlns:dc="http://purl.org/dc/elements/1.1/"
   xmlns:cc="http://creativecommons.org/ns#"
   xmlns:rdf="http://www.w3.org/1999/02/22-rdf-syntax-ns#"
   xmlns:svg="http://www.w3.org/2000/svg"
   xmlns="http://www.w3.org/2000/svg"
   xmlns:sodipodi="http://sodipodi.sourceforge.net/DTD/sodipodi-0.dtd"
   xmlns:inkscape="http://www.inkscape.org/namespaces/inkscape"
   version="1.1"
   x="0px"
   y="0px"
   viewBox="0 0 1000 1000"
   enable-background="new 0 0 1000 1000"
   xml:space="preserve"
   id="svg10"
   sodipodi:docname="trello.svg"
   inkscape:version="1.0.1 (1.0.1+r74)"><defs
   id="defs14" /><sodipodi:namedview
   pagecolor="#ffffff"
   bordercolor="#666666"
   borderopacity="1"
   objecttolerance="10"
   gridtolerance="10"
   guidetolerance="10"
   inkscape:pageopacity="0"
   inkscape:pageshadow="2"
   inkscape:window-width="1920"
   inkscape:window-height="1029"
   id="namedview12"
   showgrid="false"
   inkscape:pagecheckerboard="true"
   inkscape:zoom="0.857"
   inkscape:cx="501.16686"
   inkscape:cy="500"
   inkscape:window-x="0"
   inkscape:window-y="0"
   inkscape:window-maximized="1"
   inkscape:current-layer="svg10" />
<metadata
   id="metadata2"> Svg Vector Icons : http://www.onlinewebfonts.com/icon <rdf:RDF><cc:Work
     rdf:about=""><dc:format>image/svg+xml</dc:format><dc:type
       rdf:resource="http://purl.org/dc/dcmitype/StillImage" /><dc:title></dc:title></cc:Work></rdf:RDF></metadata>
<g
   id="g8"
   style="fill:#60be86;fill-opacity:1"><g
     transform="matrix(1 0 0 -1 0 1536)"
     id="g6"
     style="fill:#60be86;fill-opacity:1"><path
       d="M459.2,750.2v653.3c0,6-1.9,10.8-5.7,14.7c-3.8,3.8-8.7,5.7-14.7,5.7H132.5c-6,0-10.8-1.9-14.7-5.7s-5.7-8.7-5.7-14.7V750.2c0-6,1.9-10.8,5.7-14.7c3.8-3.8,8.7-5.7,14.7-5.7h306.2c6,0,10.8,1.9,14.7,5.7C457.3,739.3,459.2,744.2,459.2,750.2z M887.9,995.2v408.3c0,6-1.9,10.8-5.7,14.7c-3.8,3.8-8.7,5.7-14.7,5.7H561.3c-6,0-10.8-1.9-14.7-5.7c-3.8-3.8-5.7-8.7-5.7-14.7V995.2c0-6,1.9-10.8,5.7-14.7c3.8-3.8,8.7-5.7,14.7-5.7h306.3c6,0,10.8,1.9,14.7,5.7C886,984.3,887.9,989.2,887.9,995.2z M990,1485.2V586.8c0-11.1-4-20.6-12.1-28.7c-8.1-8.1-17.7-12.1-28.7-12.1H50.8c-11.1,0-20.6,4-28.7,12.1S10,575.8,10,586.8v898.3c0,11.1,4,20.6,12.1,28.7c8.1,8.1,17.7,12.1,28.7,12.1h898.3c11.1,0,20.6-4,28.7-12.1C986,1505.8,990,1496.2,990,1485.2z"
       id="path4"
       style="fill:#60be86;fill-opacity:1" /></g></g>
</svg>
