<?xml version="1.0" encoding="UTF-8" standalone="no"?>
<svg
   xmlns:dc="http://purl.org/dc/elements/1.1/"
   xmlns:cc="http://creativecommons.org/ns#"
   xmlns:rdf="http://www.w3.org/1999/02/22-rdf-syntax-ns#"
   xmlns:svg="http://www.w3.org/2000/svg"
   xmlns="http://www.w3.org/2000/svg"
   xmlns:sodipodi="http://sodipodi.sourceforge.net/DTD/sodipodi-0.dtd"
   xmlns:inkscape="http://www.inkscape.org/namespaces/inkscape"
   version="1.1"
   id="Capa_1"
   x="0px"
   y="0px"
   viewBox="0 0 512 512"
   style="enable-background:new 0 0 512 512;"
   xml:space="preserve"
   sodipodi:docname="trello.svg"
   inkscape:version="1.0.1 (1.0.1+r74)"><metadata
   id="metadata45"><rdf:RDF><cc:Work
       rdf:about=""><dc:format>image/svg+xml</dc:format><dc:type
         rdf:resource="http://purl.org/dc/dcmitype/StillImage" /></cc:Work></rdf:RDF></metadata><defs
   id="defs43" /><sodipodi:namedview
   pagecolor="#ffffff"
   bordercolor="#666666"
   borderopacity="1"
   objecttolerance="10"
   gridtolerance="10"
   guidetolerance="10"
   inkscape:pageopacity="0"
   inkscape:pageshadow="2"
   inkscape:window-width="1920"
   inkscape:window-height="1029"
   id="namedview41"
   showgrid="false"
   inkscape:zoom="1.6738281"
   inkscape:cx="256.59743"
   inkscape:cy="256"
   inkscape:window-x="0"
   inkscape:window-y="0"
   inkscape:window-maximized="1"
   inkscape:current-layer="Capa_1" />
<path
   style="fill:#60be86;fill-opacity:1"
   d="M448,0H64C28.672,0,0,28.672,0,64v384c0,35.328,28.672,64,64,64h384c35.36,0,64-28.672,64-64V64  C512,28.64,483.328,0,448,0z"
   id="path2" />
<g
   id="g8">
	<path
   style="fill:#ECEFF1;"
   d="M224,384c0,17.664-14.336,32-32,32H96c-17.696,0-32-14.336-32-32V96c0-17.696,14.304-32,32-32h96   c17.664,0,32,14.304,32,32V384z"
   id="path4" />
	<path
   style="fill:#ECEFF1;"
   d="M448,256c0,17.664-14.336,32-32,32h-96c-17.696,0-32-14.336-32-32V96c0-17.696,14.304-32,32-32h96   c17.664,0,32,14.304,32,32V256z"
   id="path6" />
</g>
<g
   id="g10">
</g>
<g
   id="g12">
</g>
<g
   id="g14">
</g>
<g
   id="g16">
</g>
<g
   id="g18">
</g>
<g
   id="g20">
</g>
<g
   id="g22">
</g>
<g
   id="g24">
</g>
<g
   id="g26">
</g>
<g
   id="g28">
</g>
<g
   id="g30">
</g>
<g
   id="g32">
</g>
<g
   id="g34">
</g>
<g
   id="g36">
</g>
<g
   id="g38">
</g>
</svg>
