<?xml version="1.0" encoding="UTF-8" standalone="no"?>
<svg
   xmlns:dc="http://purl.org/dc/elements/1.1/"
   xmlns:cc="http://creativecommons.org/ns#"
   xmlns:rdf="http://www.w3.org/1999/02/22-rdf-syntax-ns#"
   xmlns:svg="http://www.w3.org/2000/svg"
   xmlns="http://www.w3.org/2000/svg"
   xmlns:sodipodi="http://sodipodi.sourceforge.net/DTD/sodipodi-0.dtd"
   xmlns:inkscape="http://www.inkscape.org/namespaces/inkscape"
   id="typescript"
   viewBox="0 0 128 128"
   version="1.1"
   sodipodi:docname="typescript.svg"
   inkscape:version="1.0.1 (1.0.1+r74)">
  <metadata
     id="metadata8">
    <rdf:RDF>
      <cc:Work
         rdf:about="">
        <dc:format>image/svg+xml</dc:format>
        <dc:type
           rdf:resource="http://purl.org/dc/dcmitype/StillImage" />
      </cc:Work>
    </rdf:RDF>
  </metadata>
  <defs
     id="defs6" />
  <sodipodi:namedview
     pagecolor="#ffffff"
     bordercolor="#666666"
     borderopacity="1"
     objecttolerance="10"
     gridtolerance="10"
     guidetolerance="10"
     inkscape:pageopacity="0"
     inkscape:pageshadow="2"
     inkscape:window-width="1920"
     inkscape:window-height="1029"
     id="namedview4"
     showgrid="false"
     inkscape:zoom="6.6953125"
     inkscape:cx="64.149358"
     inkscape:cy="64"
     inkscape:window-x="0"
     inkscape:window-y="0"
     inkscape:window-maximized="1"
     inkscape:current-layer="typescript" />
  <path
     id="plain"
     fill="#007acc"
     d="M2,63.91v62.5H127V1.41H2Zm100.73-5a15.56,15.56,0,0,1,7.82,4.5,20.58,20.58,0,0,1,3,4c0,.16-5.4,3.81-8.69,5.85-.12.08-.6-.44-1.13-1.23a7.09,7.09,0,0,0-5.87-3.53c-3.79-.26-6.23,1.73-6.21,5a4.58,4.58,0,0,0,.54,2.34c.83,1.73,2.38,2.76,7.24,4.86,8.95,3.85,12.78,6.39,15.16,10,2.66,4,3.25,10.46,1.45,15.24-2,5.2-6.9,8.73-13.83,9.9a38.32,38.32,0,0,1-9.52-.1A23,23,0,0,1,80,109.19c-1.15-1.27-3.39-4.58-3.25-4.82a9.34,9.34,0,0,1,1.15-.73L82.5,101l3.59-2.08.75,1.11a16.78,16.78,0,0,0,4.74,4.54c4,2.1,9.46,1.81,12.16-.62a5.43,5.43,0,0,0,.69-6.92c-1-1.39-3-2.56-8.59-5-6.45-2.78-9.23-4.5-11.77-7.24a16.48,16.48,0,0,1-3.43-6.25,25,25,0,0,1-.22-8c1.33-6.23,6-10.58,12.82-11.87A31.66,31.66,0,0,1,102.73,58.93ZM73.39,64.15l0,5.12H57.16V115.5H45.65V69.26H29.38v-5a49.19,49.19,0,0,1,.14-5.16c.06-.08,10-.12,22-.1L73.33,59Z"
     style="fill:#60be86;fill-opacity:1" />
</svg>
